<svg width="178" height="132" viewBox="0 0 178 132" fill="none" xmlns="http://www.w3.org/2000/svg">
<g clip-path="url(#clip0_16_269)">
<path d="M139.975 75.1796C160.949 75.1796 177.951 58.3501 177.951 37.5898C177.951 16.8295 160.949 0 139.975 0C119.002 0 102 16.8295 102 37.5898C102 58.3501 119.002 75.1796 139.975 75.1796Z" fill="#FFBB3E"/>
<path d="M75.5123 75.3892C96.2298 75.3892 113.025 58.5597 113.025 37.7994C113.025 17.0391 96.2298 0.209579 75.5123 0.209579C54.7948 0.209579 38 17.0391 38 37.7994C38 58.5597 54.7948 75.3892 75.5123 75.3892Z" fill="#47CE76"/>
<path d="M63.0082 42.4401L69.5066 50.93C71.0625 52.2559 73.3514 51.8732 74.4511 50.1032L89.4057 25.2695" stroke="#F7F7F7" stroke-width="6" stroke-linecap="round"/>
<path d="M101.975 131.18C122.949 131.18 139.951 114.35 139.951 93.5898C139.951 72.8295 122.949 56 101.975 56C81.0022 56 64 72.8295 64 93.5898C64 114.35 81.0022 131.18 101.975 131.18Z" fill="#F06262"/>
<path d="M90.9098 82.7425L101.561 93.4162M101.561 93.4162L112.213 104.09M101.561 93.4162L112.213 82.7425M101.561 93.4162L90.9098 104.09" stroke="#F7F7F7" stroke-width="6" stroke-linecap="round"/>
<path d="M37.5123 131.18C58.2298 131.18 75.0246 114.35 75.0246 93.5898C75.0246 72.8295 58.2298 56 37.5123 56C16.7948 56 0 72.8295 0 93.5898C0 114.35 16.7948 131.18 37.5123 131.18Z" fill="#608FEA"/>
<g clip-path="url(#clip1_16_269)">
<path d="M37.5 109.847V88.5" stroke="#F7F7F7" stroke-width="6" stroke-linecap="round"/>
<path d="M41 78.5C41 80.433 39.433 82 37.5 82C35.567 82 34 80.433 34 78.5C34 76.567 35.567 75 37.5 75C39.433 75 41 76.567 41 78.5Z" fill="#F7F7F7"/>
</g>
<g clip-path="url(#clip2_16_269)">
<path d="M136.536 24C138.075 21.3333 141.925 21.3333 143.464 24L157.321 48C158.86 50.6667 156.936 54 153.856 54H126.144C123.064 54 121.14 50.6667 122.679 48L136.536 24Z" fill="#F7F7F7"/>
<path d="M140 32V41.3851" stroke="#FFBB3E" stroke-width="3" stroke-linecap="round"/>
<path d="M140 48.5C139.172 48.5 138.5 47.8284 138.5 47C138.5 46.1716 139.172 45.5 140 45.5C140.828 45.5 141.5 46.1716 141.5 47C141.5 47.8284 140.828 48.5 140 48.5Z" fill="#FFBB3E" stroke="#FFBB3E"/>
</g>
</g>
<defs>
<clipPath id="clip0_16_269">
<rect width="178" height="132" fill="white"/>
</clipPath>
<clipPath id="clip1_16_269">
<rect width="7" height="38" fill="white" transform="translate(34 75)"/>
</clipPath>
<clipPath id="clip2_16_269">
<rect width="38" height="33" fill="white" transform="translate(121 21)"/>
</clipPath>
</defs>
</svg>
